<?xml version="1.0" encoding="iso-8859-1"?>
<!-- Generator: Adobe Illustrator 16.0.0, SVG Export Plug-In . SVG Version: 6.00 Build 0)  -->
<!DOCTYPE svg PUBLIC "-//W3C//DTD SVG 1.1//EN" "http://www.w3.org/Graphics/SVG/1.1/DTD/svg11.dtd">
<svg version="1.1" xmlns="http://www.w3.org/2000/svg" xmlns:xlink="http://www.w3.org/1999/xlink" x="0px" y="0px" width="64px"
	 height="64px" viewBox="0 0 64 64" style="enable-background:new 0 0 64 64;" xml:space="preserve">
<g id="Layer_31">
	<g>
		<g>
			<path style="fill:#84BD5A;" d="M32,0C14.355,0,0,14.355,0,32s14.355,32,32,32c17.645,0,32-14.355,32-32S49.645,0,32,0z"/>
		</g>
		<path style="fill:#FFFFFF;" d="M46.121,22.879c-1.171-1.172-3.071-1.172-4.242,0L30,34.758l-5.879-5.879
			c-1.171-1.172-3.071-1.172-4.242,0c-1.172,1.171-1.172,3.071,0,4.242l8,8C28.464,41.707,29.232,42,30,42s1.536-0.293,2.121-0.879
			l14-14C47.293,25.95,47.293,24.05,46.121,22.879z"/>
	</g>
</g>
<g id="Layer_1">
</g>
</svg>
