<?xml version="1.0" encoding="iso-8859-1"?>
<!-- Generator: Adobe Illustrator 16.0.0, SVG Export Plug-In . SVG Version: 6.00 Build 0)  -->
<!DOCTYPE svg PUBLIC "-//W3C//DTD SVG 1.1//EN" "http://www.w3.org/Graphics/SVG/1.1/DTD/svg11.dtd">
<svg version="1.1" xmlns="http://www.w3.org/2000/svg" xmlns:xlink="http://www.w3.org/1999/xlink" x="0px" y="0px" width="64px"
	 height="64px" viewBox="0 0 64 64" style="enable-background:new 0 0 64 64;" xml:space="preserve">
<g id="Layer_30">
	<g>
		<g>
			<path style="fill:#F15642;" d="M32,64c17.645,0,32-14.355,32-32S49.645,0,32,0C14.355,0,0,14.355,0,32S14.355,64,32,64z"/>
		</g>
		<path style="fill:#FFFFFF;" d="M36.242,32l5.879-5.879c1.172-1.171,1.172-3.071,0-4.242c-1.171-1.172-3.071-1.172-4.242,0
			L32,27.758l-5.879-5.879c-1.171-1.172-3.071-1.172-4.242,0c-1.172,1.171-1.172,3.071,0,4.242L27.758,32l-5.879,5.879
			c-1.172,1.171-1.172,3.071,0,4.242C22.464,42.707,23.232,43,24,43s1.536-0.293,2.121-0.879L32,36.242l5.879,5.879
			C38.465,42.707,39.232,43,40,43s1.535-0.293,2.121-0.879c1.172-1.171,1.172-3.071,0-4.242L36.242,32z"/>
	</g>
</g>
<g id="Layer_1">
</g>
</svg>
