<?xml version="1.0" encoding="iso-8859-1"?>
<!-- Generator: Adobe Illustrator 16.0.0, SVG Export Plug-In . SVG Version: 6.00 Build 0)  -->
<!DOCTYPE svg PUBLIC "-//W3C//DTD SVG 1.1//EN" "http://www.w3.org/Graphics/SVG/1.1/DTD/svg11.dtd">
<svg version="1.1" xmlns="http://www.w3.org/2000/svg" xmlns:xlink="http://www.w3.org/1999/xlink" x="0px" y="0px" width="64px"
	 height="54px" viewBox="0 0 64 54" style="enable-background:new 0 0 64 54;" xml:space="preserve">
<g id="Layer_45">
	<g>
		<path style="fill:#576D7E;" d="M64,8c0,1.1-0.9,2-2,2H18c-1.1,0-2-0.9-2-2V2c0-1.1,0.9-2,2-2h44c1.1,0,2,0.9,2,2V8z"/>
		<path style="fill:#576D7E;" d="M64,30c0,1.1-0.9,2-2,2H18c-1.1,0-2-0.9-2-2v-6c0-1.1,0.9-2,2-2h44c1.1,0,2,0.9,2,2V30z"/>
		<path style="fill:#576D7E;" d="M64,52c0,1.1-0.9,2-2,2H18c-1.1,0-2-0.9-2-2v-6c0-1.1,0.9-2,2-2h44c1.1,0,2,0.9,2,2V52z"/>
		<circle style="fill:#84BD5A;" cx="5" cy="5" r="5"/>
		<circle style="fill:#84BD5A;" cx="5" cy="27" r="5"/>
		<circle style="fill:#84BD5A;" cx="5" cy="49" r="5"/>
	</g>
</g>
<g id="Layer_1">
</g>
</svg>
