<?xml version="1.0" encoding="iso-8859-1"?>
<!-- Generator: Adobe Illustrator 16.0.0, SVG Export Plug-In . SVG Version: 6.00 Build 0)  -->
<!DOCTYPE svg PUBLIC "-//W3C//DTD SVG 1.1//EN" "http://www.w3.org/Graphics/SVG/1.1/DTD/svg11.dtd">
<svg version="1.1" xmlns="http://www.w3.org/2000/svg" xmlns:xlink="http://www.w3.org/1999/xlink" x="0px" y="0px" width="64px"
	 height="64px" viewBox="0 0 64 64" style="enable-background:new 0 0 64 64;" xml:space="preserve">
<g id="Layer_29">
	<g>
		<g>
			<path style="fill:#84BD5A;" d="M32,0C14.355,0,0,14.355,0,32s14.355,32,32,32c17.646,0,32-14.355,32-32S49.646,0,32,0z"/>
		</g>
		<path style="fill:#FFFFFF;" d="M42,29h-7v-7c0-1.657-1.343-3-3-3c-1.657,0-3,1.343-3,3v7h-7c-1.657,0-3,1.343-3,3s1.343,3,3,3h7v7
			c0,1.657,1.343,3,3,3c1.657,0,3-1.343,3-3v-7h7c1.657,0,3-1.343,3-3S43.657,29,42,29z"/>
	</g>
</g>
<g id="Layer_1">
</g>
</svg>
